<svg xmlns="http://www.w3.org/2000/svg" viewBox="0 0 64 64" id="order-list">
  <path fill="#b7b7b7" d="M47 58.56V61H17v-2.44a1.992 1.992 0 0 1 1.51-1.94L25 55v-8h14v8l6.49 1.62A1.992 1.992 0 0 1 47 58.56Z"></path>
  <path fill="#c4c4c4" d="M37 47v2.75A11.254 11.254 0 0 1 25.75 61H17v-2.44a1.992 1.992 0 0 1 1.51-1.94L25 55v-8Z"></path>
  <path fill="#c9c9c9" d="M42 41h13v4a2 2 0 0 1-2 2H11a2 2 0 0 1-2-2v-4h11"></path>
  <path fill="#058bd6" d="M51 13h2a2 2 0 0 1 2 2v26H9V15a2 2 0 0 1 2-2h40Z"></path>
  <path fill="#33a4db" d="M51 5.95V41H13V5.95A1.976 1.976 0 0 1 15 4h34a1.976 1.976 0 0 1 2 1.95Z"></path>
  <path fill="#51bbe5" d="M46 4v14.79A15.21 15.21 0 0 1 30.79 34H13V5.95A1.976 1.976 0 0 1 15 4Z"></path>
  <path fill="#ccc" d="m38.948 17.316-1.9-.632 2-6A1 1 0 0 1 40 10h2v2h-1.279Z"></path>
  <path fill="#f8cf26" d="m20.101 11.44 1.857-.742 3.971 9.931-1.857.743z"></path>
  <path fill="#f8cf26" d="m23.02 11.196 1.961-.392 2 10-1.961.392z"></path>
  <path fill="#f8cf26" d="m26.072 20.628 3.769-9.418 1.857.743-3.768 9.418z"></path>
  <path fill="#f8cf26" d="m25.019 20.804 1.8-8.99 1.96.393-1.8 8.99z"></path>
  <path fill="#d1303d" d="m31 16-2 8h-6l-.52-2.08L21 16h10z"></path>
  <path fill="#d8485a" d="m27.5 16-.42 1.67a5.7 5.7 0 0 1-4.6 4.25L21 16Z"></path>
  <path fill="#0585cc" d="m43 14-1 10h-6l-.21-2.1-.39-3.9-.4-4h8z"></path>
  <path fill="#189ad3" d="m40.8 14-.27 2.71a5.876 5.876 0 0 1-4.74 5.19L35.4 18l-.4-4Z"></path>
  <path fill="#e58025" d="M36 24h-8l-1-3h10l-1 3z"></path>
  <path fill="#f19332" d="M37 21H27l.33-1 .67-2h8l1 3z"></path>
  <path fill="#f2a25a" d="M34.1 18a2.267 2.267 0 0 1-2.26 2h-4.51l.67-2Z"></path>
  <path fill="#0980b5" d="M12 13h1v28h-1zM51 13h1v28h-1z"></path>
  <path fill="#0990c6" d="M24 6h24v2H24zM16 6h2v2h-2zM20 6h2v2h-2zM19 27h26v2H19z"></path>
  <path fill="#5fcced" d="M13 9a2.015 2.015 0 0 1 2 2v8a2.006 2.006 0 0 1-2 2zm0 14a2.015 2.015 0 0 1 2 2v2a2.006 2.006 0 0 1-2 2z"></path>
  <path fill="#d1303d" d="M12 43h2v2h-2z"></path>
  <path fill="#009d54" d="M16 43h2v2h-2z"></path>
  <path fill="#f2f2f2" d="M29 47h6v3a3 3 0 0 1-3 3 3 3 0 0 1-3-3v-3Z"></path>
  <path fill="#f9e8a2" d="M39.18 43.82a2.01 2.01 0 0 1-.91-.82H39a1.891 1.891 0 0 0 .18.82zM38 42a2 2 0 0 0 .27 1H23v-1z"></path>
  <path fill="#b7b7b7" d="M25 47h4v2h-4zM35 47h4v2h-4z"></path>
  <path fill="#f4e190" d="M42 28v14a2.015 2.015 0 0 1-2 2 1.891 1.891 0 0 1-.82-.18c-.18.18-.91-.82-.91-.82a2 2 0 0 1-.27-1H22V28Z"></path>
  <path fill="#f9eec0" d="M22 28h15v2.871A9.129 9.129 0 0 1 27.871 40H22V28Z"></path>
  <path fill="#e5d077" d="M25 31h9v2h-9zM36 31h3v2h-3zM25 35h9v2h-9zM36 35h3v2h-3z"></path>
  <path fill="#e8d274" d="M40 44H22a2.006 2.006 0 0 1-2-2v-2h18v2a2.006 2.006 0 0 0 2 2Z"></path>
  <path fill="#fffae6" d="M22 30a2.015 2.015 0 0 1 2 2v2a2.006 2.006 0 0 1-2 2Z"></path>
</svg>
